<svg xmlns="http://www.w3.org/2000/svg" xmlns:xlink="http://www.w3.org/1999/xlink" fill="none" version="1.1" width="87" height="87" viewBox="0 0 87 87"><path d="M77.333336,0L77.333336,9.6666727L48.333332,9.6666727L48.333332,0L77.333336,0ZM38.666668,9.6666727L48.333332,9.6666727L48.333332,19.333334L38.666668,19.333334L38.666668,9.6666727ZM77.333336,9.6666727L87,9.6666727L87,19.333334L77.333336,19.333334L77.333336,9.6666727ZM38.666668,29.000002L87,29.000002L87,38.666668L38.666668,38.666668L38.666668,29.000002ZM38.666668,19.333334L38.666668,29.000002L19.333334,29.000002L19.333334,48.333332L29,48.333332L29,58.000004L19.333334,58.000004L19.333334,87L0,87L0,77.333336L9.666667,77.333336L9.666667,67.666672L0,67.666672L0,58.000004L9.666667,58.000004L9.666667,29.000002L0,29.000002L0,19.333334L9.666667,19.333334L9.666667,0L19.333334,0L19.333334,19.333334L38.666668,19.333334ZM77.333336,58.000004L48.333332,58.000004L48.333332,77.333336L77.333336,77.333336L77.333336,58.000004ZM38.666668,48.333332L87,48.333332L87,87L38.666668,87L38.666668,48.333332Z" fill="#222222" fill-opacity="1"/></svg>