<svg xmlns="http://www.w3.org/2000/svg" xmlns:xlink="http://www.w3.org/1999/xlink" fill="none" version="1.1" width="280" height="142" viewBox="0 0 280 142"><path d="M38.620728,28.666672L38.620728,19.111115L48.275879,19.111115L48.275879,9.5555725L77.241333,9.5555725L77.241333,19.111115L86.896606,19.111115L86.896606,9.5555725L77.241333,9.5555725L77.241333,0L48.275879,0L48.275879,9.5555725L38.620728,9.5555725L38.620728,19.111115L19.310303,19.111115L19.310303,0L9.6551514,0L9.6551514,19.111115L0,19.111115L0,28.666672L9.6551514,28.666672L9.6551514,57.333344L0,57.333344L0,66.888885L9.6551514,66.888885L9.6551514,76.444443L0,76.444443L0,86L19.310303,86L19.310303,57.333344L28.965576,57.333344L28.965576,47.777771L19.310303,47.777771L19.310303,28.666672L38.620728,28.666672ZM38.620728,28.666672L38.620728,38.222229L86.896606,38.222229L86.896606,28.666672L38.620728,28.666672ZM135.17236,0L135.17236,19.111115L125.51721,19.111115L125.51721,0L115.86206,0L115.86206,19.111115L106.20691,19.111115L106.20691,0L96.551758,0L96.551758,47.777771L106.20691,47.777771L106.20691,28.666672L115.86206,28.666672L115.86206,57.333344L96.551758,57.333344L96.551758,66.888885L115.86206,66.888885L115.86206,86L125.51721,86L125.51721,57.333344L135.17236,57.333344L135.17236,47.777771L144.82764,47.777771L144.82764,66.888885L135.17236,66.888885L135.17236,86L144.82764,86L144.82764,66.888885L154.48279,66.888885L154.48279,47.777771L164.13794,47.777771L164.13794,19.111115L173.79309,19.111115L173.79309,76.444443L154.48279,76.444443L154.48279,86L173.79309,86L173.79309,76.444443L183.44824,76.444443L183.44824,9.5555725L144.82764,9.5555725L144.82764,0L135.17236,0ZM154.48279,47.777771L144.82764,47.777771L144.82764,19.111115L154.48279,19.111115L154.48279,47.777771ZM135.17236,47.777771L125.51721,47.777771L125.51721,28.666672L135.17236,28.666672L135.17236,47.777771ZM193.10352,9.5555725L193.10352,19.111115L212.41382,19.111115L212.41382,28.666672L202.75867,28.666672L202.75867,47.777771L193.10352,47.777771L193.10352,57.333344L202.75867,57.333344L202.75867,86L212.41382,86L212.41382,47.777771L222.06897,47.777771L222.06897,57.333344L231.72412,57.333344L231.72412,47.777771L222.06897,47.777771L222.06897,38.222229L212.41382,38.222229L212.41382,28.666672L222.06897,28.666672L222.06897,9.5555725L212.41382,9.5555725L212.41382,0L202.75867,0L202.75867,9.5555725L193.10352,9.5555725ZM251.03455,38.222229L251.03455,76.444443L222.06897,76.444443L222.06897,86L280,86L280,76.444443L260.6897,76.444443L260.6897,38.222229L280,38.222229L280,28.666672L260.6897,28.666672L260.6897,0L251.03455,0L251.03455,28.666672L231.72412,28.666672L231.72412,38.222229L251.03455,38.222229ZM86.896606,47.777771L38.620728,47.777771L38.620728,86L86.896606,86L86.896606,47.777771ZM48.275879,57.333344L77.241333,57.333344L77.241333,76.444443L48.275879,76.444443L48.275879,57.333344ZM279.99976,97.000046L0,97L0,100L279.99976,100.00005L279.99976,97.000046ZM10.632935,117.11111L10.632935,120.66667L0,120.66667L0,124.22223L7.088623,124.22223L7.088623,127.77777L3.5443115,127.77777L3.5443115,131.33333L21.265869,131.33333L21.265869,134.88889L17.721558,134.88889L17.721558,138.44444L14.177246,138.44444L14.177246,134.88889L10.632935,134.88889L10.632935,138.44444L14.177246,138.44444L14.177246,142L24.810181,142L24.810181,138.44444L21.265869,138.44444L21.265869,134.88889L24.810181,134.88889L24.810181,131.33333L28.35437,131.33333L28.35437,127.77777L10.632935,127.77777L10.632935,124.22223L31.898682,124.22223L31.898682,120.66667L14.177246,120.66667L14.177246,117.11111L28.35437,117.11111L28.35437,113.55556L17.721558,113.55556L17.721558,110L14.177246,110L14.177246,113.55556L3.5443115,113.55556L3.5443115,117.11111L10.632935,117.11111ZM38.987305,110L35.442993,110L35.442993,113.55556L38.987305,113.55556L38.987305,117.11111L42.531616,117.11111L42.531616,113.55556L38.987305,113.55556L38.987305,110ZM56.708862,110L53.164551,110L53.164551,113.55556L56.708862,113.55556L56.708862,117.11111L46.075928,117.11111L46.075928,120.66667L56.708862,120.66667L56.708862,127.77777L49.620239,127.77777L49.620239,131.33333L56.708862,131.33333L56.708862,138.44444L46.075928,138.44444L46.075928,142L67.341797,142L67.341797,138.44444L60.253174,138.44444L60.253174,131.33333L67.341797,131.33333L67.341797,127.77777L60.253174,127.77777L60.253174,120.66667L67.341797,120.66667L67.341797,117.11111L60.253174,117.11111L60.253174,113.55556L56.708862,113.55556L56.708862,110ZM70.886108,120.66667L77.974731,120.66667L77.974731,124.22223L74.43042,124.22223L74.43042,131.33333L70.886108,131.33333L70.886108,134.88889L74.43042,134.88889L74.43042,131.33333L77.974731,131.33333L77.974731,142L81.519043,142L81.519043,131.33333L85.063232,131.33333L85.063232,127.77777L81.519043,127.77777L81.519043,120.66667L85.063232,120.66667L85.063232,124.22223L88.607544,124.22223L88.607544,131.33333L92.151855,131.33333L92.151855,134.88889L88.607544,134.88889L88.607544,138.44444L85.063232,138.44444L85.063232,142L88.607544,142L88.607544,138.44444L92.151855,138.44444L92.151855,134.88889L95.696167,134.88889L95.696167,138.44444L99.240479,138.44444L99.240479,142L102.78479,142L102.78479,138.44444L99.240479,138.44444L99.240479,134.88889L95.696167,134.88889L95.696167,131.33333L99.240479,131.33333L99.240479,124.22223L102.78479,124.22223L102.78479,120.66667L99.240479,120.66667L99.240479,117.11111L102.78479,117.11111L102.78479,113.55556L95.696167,113.55556L95.696167,110L92.151855,110L92.151855,113.55556L85.063232,113.55556L85.063232,117.11111L81.519043,117.11111L81.519043,110L77.974731,110L77.974731,117.11111L70.886108,117.11111L70.886108,120.66667ZM88.607544,120.66667L85.063232,120.66667L85.063232,117.11111L88.607544,117.11111L88.607544,120.66667ZM88.607544,120.66667L92.151855,120.66667L92.151855,117.11111L95.696167,117.11111L95.696167,120.66667L99.240479,120.66667L99.240479,124.22223L95.696167,124.22223L95.696167,131.33333L92.151855,131.33333L92.151855,124.22223L88.607544,124.22223L88.607544,120.66667ZM106.3291,110L106.3291,142L138.22778,142L138.22778,110L106.3291,110ZM205.56958,113.55556L205.56958,110L194.93665,110L194.93665,113.55556L180.75952,113.55556L180.75952,117.11111L191.39246,117.11111L191.39246,120.66667L180.75952,120.66667L180.75952,124.22223L191.39246,124.22223L191.39246,127.77777L177.21521,127.77777L177.21521,131.33333L191.39246,131.33333L191.39246,138.44444L184.30383,138.44444L184.30383,142L194.93665,142L194.93665,131.33333L209.11389,131.33333L209.11389,127.77777L194.93665,127.77777L194.93665,124.22223L205.56958,124.22223L205.56958,120.66667L194.93665,120.66667L194.93665,113.55556L205.56958,113.55556ZM244.55701,117.11111L244.55701,113.55556L230.37976,113.55556L230.37976,110L226.83545,110L226.83545,113.55556L212.6582,113.55556L212.6582,117.11111L219.74683,117.11111L219.74683,120.66667L216.20251,120.66667L216.20251,124.22223L212.6582,124.22223L212.6582,127.77777L216.20251,127.77777L216.20251,124.22223L219.74683,124.22223L219.74683,127.77777L223.29114,127.77777L223.29114,131.33333L226.83545,131.33333L226.83545,134.88889L219.74683,134.88889L219.74683,138.44444L212.6582,138.44444L212.6582,142L219.74683,142L219.74683,138.44444L226.83545,138.44444L226.83545,134.88889L230.37976,134.88889L230.37976,138.44444L237.46838,138.44444L237.46838,142L244.55701,142L244.55701,138.44444L237.46838,138.44444L237.46838,134.88889L230.37976,134.88889L230.37976,131.33333L233.92407,131.33333L233.92407,127.77777L237.46838,127.77777L237.46838,124.22223L241.0127,124.22223L241.0127,127.77777L244.55701,127.77777L244.55701,124.22223L241.0127,124.22223L241.0127,120.66667L237.46838,120.66667L237.46838,117.11111L244.55701,117.11111ZM237.46838,120.66667L237.46838,124.22223L233.92407,124.22223L233.92407,127.77777L230.37976,127.77777L230.37976,131.33333L226.83545,131.33333L226.83545,127.77777L223.29114,127.77777L223.29114,124.22223L219.74683,124.22223L219.74683,120.66667L223.29114,120.66667L223.29114,117.11111L233.92407,117.11111L233.92407,120.66667L237.46838,120.66667ZM255.18982,138.44444L255.18982,134.88889L262.27844,134.88889L262.27844,138.44444L258.73413,138.44444L258.73413,142L262.27844,142L262.27844,138.44444L265.82275,138.44444L265.82275,134.88889L276.45569,134.88889L276.45569,138.44444L269.36707,138.44444L269.36707,142L276.45569,142L276.45569,138.44444L280,138.44444L280,131.33333L258.73413,131.33333L258.73413,127.77777L272.91138,127.77777L272.91138,110L251.64551,110L251.64551,127.77777L255.18982,127.77777L255.18982,131.33333L248.10132,131.33333L248.10132,134.88889L251.64551,134.88889L251.64551,138.44444L248.10132,138.44444L248.10132,142L251.64551,142L251.64551,138.44444L255.18982,138.44444ZM134.68359,113.55556L134.68359,138.44444L109.87341,138.44444L109.87341,113.55556L134.68359,113.55556ZM170.12659,117.11111L170.12659,113.55556L145.31641,113.55556L145.31641,117.11111L170.12659,117.11111ZM269.36707,113.55556L269.36707,117.11111L255.18982,117.11111L255.18982,113.55556L269.36707,113.55556ZM116.96204,120.66667L127.59497,120.66667L127.59497,117.11111L116.96204,117.11111L116.96204,120.66667ZM38.987305,120.66667L35.442993,120.66667L35.442993,124.22223L38.987305,124.22223L38.987305,127.77777L42.531616,127.77777L42.531616,124.22223L38.987305,124.22223L38.987305,120.66667ZM255.18982,124.22223L255.18982,120.66667L269.36707,120.66667L269.36707,124.22223L255.18982,124.22223ZM131.13928,127.77777L131.13928,124.22223L113.41772,124.22223L113.41772,127.77777L116.96204,127.77777L116.96204,131.33333L113.41772,131.33333L113.41772,134.88889L116.96204,134.88889L116.96204,131.33333L120.50635,131.33333L120.50635,127.77777L124.05066,127.77777L124.05066,134.88889L131.13928,134.88889L131.13928,131.33333L127.59497,131.33333L127.59497,127.77777L131.13928,127.77777ZM46.075928,131.33333L42.531616,131.33333L42.531616,134.88889L38.987305,134.88889L38.987305,138.44444L35.442993,138.44444L35.442993,142L38.987305,142L38.987305,138.44444L42.531616,138.44444L42.531616,134.88889L46.075928,134.88889L46.075928,131.33333ZM141.77209,138.44444L173.6709,138.44444L173.6709,134.88889L141.77209,134.88889L141.77209,138.44444Z" fill-rule="evenodd" fill="#222222" fill-opacity="1"/></svg>