<svg xmlns="http://www.w3.org/2000/svg" xmlns:xlink="http://www.w3.org/1999/xlink" fill="none" version="1.1" width="278.3999938964844" height="86.4000015258789" viewBox="0 0 278.3999938964844 86.4000015258789"><path d="M76.800003,0L76.800003,9.6000061L48,9.6000061L48,0L76.800003,0ZM38.400002,9.6000061L48,9.6000061L48,19.200001L38.400002,19.200001L38.400002,9.6000061ZM76.800003,9.6000061L86.400002,9.6000061L86.400002,19.200001L76.800003,19.200001L76.800003,9.6000061ZM38.400002,28.800003L86.400002,28.800003L86.400002,38.400002L38.400002,38.400002L38.400002,28.800003ZM38.400002,19.200001L38.400002,28.800003L19.200001,28.800003L19.200001,48L28.800001,48L28.800001,57.600006L19.200001,57.600006L19.200001,86.400002L0,86.400002L0,76.800003L9.6000004,76.800003L9.6000004,67.200005L0,67.200005L0,57.600006L9.6000004,57.600006L9.6000004,28.800003L0,28.800003L0,19.200001L9.6000004,19.200001L9.6000004,0L19.200001,0L19.200001,19.200001L38.400002,19.200001ZM76.800003,57.600006L48,57.600006L48,76.800003L76.800003,76.800003L76.800003,57.600006ZM38.400002,48L86.400002,48L86.400002,86.400002L38.400002,86.400002L38.400002,48ZM144,48L153.60001,48L153.60001,67.200005L144,67.200005L144,48ZM134.39999,19.200001L134.39999,0L144,0L144,9.6000061L182.39999,9.6000061L182.39999,76.800003L172.8,76.800003L172.8,19.200001L163.2,19.200001L163.2,48L153.60001,48L153.60001,19.200001L144,19.200001L144,48L134.39999,48L134.39999,28.800003L124.8,28.800003L124.8,48L134.39999,48L134.39999,57.600006L124.8,57.600006L124.8,86.400002L115.2,86.400002L115.2,67.200005L96,67.200005L96,57.600006L115.2,57.600006L115.2,28.800003L105.6,28.800003L105.6,48L96,48L96,0L105.6,0L105.6,19.200001L115.2,19.200001L115.2,0L124.8,0L124.8,19.200001L134.39999,19.200001ZM134.39999,67.200005L144,67.200005L144,86.400002L134.39999,86.400002L134.39999,67.200005ZM172.8,86.400002L153.60001,86.400002L153.60001,76.800003L172.8,76.800003L172.8,86.400002ZM211.2,19.200001L192,19.200001L192,9.6000061L201.60001,9.6000061L201.60001,0L211.2,0L211.2,9.6000061L220.8,9.6000061L220.8,28.800003L211.2,28.800003L211.2,19.200001ZM220.8,48L230.39999,48L230.39999,57.600006L220.8,57.600006L220.8,48ZM201.60001,28.800003L211.2,28.800003L211.2,38.400002L220.8,38.400002L220.8,48L211.2,48L211.2,86.400002L201.60001,86.400002L201.60001,57.600006L192,57.600006L192,48L201.60001,48L201.60001,28.800003ZM249.60001,76.800003L249.60001,38.400002L230.39999,38.400002L230.39999,28.800003L249.60001,28.800003L249.60001,0L259.20001,0L259.20001,28.800003L278.39999,28.800003L278.39999,38.400002L259.20001,38.400002L259.20001,76.800003L278.39999,76.800003L278.39999,86.400002L220.8,86.400002L220.8,76.800003L249.60001,76.800003Z" fill="#222222" fill-opacity="1"/></svg>