<svg xmlns="http://www.w3.org/2000/svg" xmlns:xlink="http://www.w3.org/1999/xlink" fill="none" version="1.1" width="280" height="142" viewBox="0 0 280 142"><path d="M38.620667,28.666672L38.620667,19.111115L48.275879,19.111115L48.275879,9.5555725L77.241394,9.5555725L77.241394,19.111115L86.896545,19.111115L86.896545,9.5555725L77.241394,9.5555725L77.241394,0L48.275879,0L48.275879,9.5555725L38.620667,9.5555725L38.620667,19.111115L19.310364,19.111115L19.310364,0L9.6551514,0L9.6551514,19.111115L0,19.111115L0,28.666672L9.6551514,28.666672L9.6551514,57.333344L0,57.333344L0,66.888885L9.6551514,66.888885L9.6551514,76.444443L0,76.444443L0,86L19.310364,86L19.310364,57.333344L28.965515,57.333344L28.965515,47.777771L19.310364,47.777771L19.310364,28.666672L38.620667,28.666672ZM38.620667,28.666672L38.620667,38.222229L86.896545,38.222229L86.896545,28.666672L38.620667,28.666672ZM135.17242,0L135.17242,19.111115L125.51727,19.111115L125.51727,0L115.86206,0L115.86206,19.111115L106.20691,19.111115L106.20691,0L96.551758,0L96.551758,47.777771L106.20691,47.777771L106.20691,28.666672L115.86206,28.666672L115.86206,57.333344L96.551758,57.333344L96.551758,66.888885L115.86206,66.888885L115.86206,86L125.51727,86L125.51727,57.333344L135.17242,57.333344L135.17242,47.777771L144.82758,47.777771L144.82758,66.888885L135.17242,66.888885L135.17242,86L144.82758,86L144.82758,66.888885L154.48279,66.888885L154.48279,47.777771L164.13794,47.777771L164.13794,19.111115L173.79309,19.111115L173.79309,76.444443L154.48279,76.444443L154.48279,86L173.79309,86L173.79309,76.444443L183.4483,76.444443L183.4483,9.5555725L144.82758,9.5555725L144.82758,0L135.17242,0ZM154.48279,47.777771L144.82758,47.777771L144.82758,19.111115L154.48279,19.111115L154.48279,47.777771ZM135.17242,47.777771L125.51727,47.777771L125.51727,28.666672L135.17242,28.666672L135.17242,47.777771ZM193.10345,19.111115L212.41382,19.111115L212.41382,28.666672L202.75867,28.666672L202.75867,47.777771L193.10345,47.777771L193.10345,57.333344L202.75867,57.333344L202.75867,86L212.41382,86L212.41382,47.777771L222.06897,47.777771L222.06897,57.333344L231.72412,57.333344L231.72412,47.777771L222.06897,47.777771L222.06897,38.222229L212.41382,38.222229L212.41382,28.666672L222.06897,28.666672L222.06897,9.5555725L212.41382,9.5555725L212.41382,0L202.75867,0L202.75867,9.5555725L193.10345,9.5555725L193.10345,19.111115ZM251.03455,38.222229L251.03455,76.444443L222.06897,76.444443L222.06897,86L280,86L280,76.444443L260.6897,76.444443L260.6897,38.222229L280,38.222229L280,28.666672L260.6897,28.666672L260.6897,0L251.03455,0L251.03455,28.666672L231.72412,28.666672L231.72412,38.222229L251.03455,38.222229ZM86.896545,47.777771L38.620667,47.777771L38.620667,86L86.896545,86L86.896545,47.777771ZM48.275879,57.333344L77.241394,57.333344L77.241394,76.444443L48.275879,76.444443L48.275879,57.333344ZM279.99976,97.000046L0,97L0,100L279.99976,100.00005L279.99976,97.000046ZM10.632935,117.11111L10.632935,120.66667L0,120.66667L0,124.22223L7.088623,124.22223L7.088623,127.77777L3.5443115,127.77777L3.5443115,131.33333L21.265808,131.33333L21.265808,134.88889L17.721497,134.88889L17.721497,138.44444L14.177185,138.44444L14.177185,134.88889L10.632935,134.88889L10.632935,138.44444L14.177185,138.44444L14.177185,142L24.81012,142L24.81012,138.44444L21.265808,138.44444L21.265808,134.88889L24.81012,134.88889L24.81012,131.33333L28.354431,131.33333L28.354431,127.77777L10.632935,127.77777L10.632935,124.22223L31.898743,124.22223L31.898743,120.66667L14.177185,120.66667L14.177185,117.11111L28.354431,117.11111L28.354431,113.55556L17.721497,113.55556L17.721497,110L14.177185,110L14.177185,113.55556L3.5443115,113.55556L3.5443115,117.11111L10.632935,117.11111ZM38.987366,110L35.443054,110L35.443054,113.55556L38.987366,113.55556L38.987366,117.11111L42.531616,117.11111L42.531616,113.55556L38.987366,113.55556L38.987366,110ZM56.708862,110L53.164551,110L53.164551,113.55556L56.708862,113.55556L56.708862,117.11111L46.075928,117.11111L46.075928,120.66667L56.708862,120.66667L56.708862,127.77777L49.620239,127.77777L49.620239,131.33333L56.708862,131.33333L56.708862,138.44444L46.075928,138.44444L46.075928,142L67.341797,142L67.341797,138.44444L60.253174,138.44444L60.253174,131.33333L67.341797,131.33333L67.341797,127.77777L60.253174,127.77777L60.253174,120.66667L67.341797,120.66667L67.341797,117.11111L60.253174,117.11111L60.253174,113.55556L56.708862,113.55556L56.708862,110ZM70.886047,120.66667L77.97467,120.66667L77.97467,124.22223L74.430359,124.22223L74.430359,131.33333L70.886047,131.33333L70.886047,134.88889L74.430359,134.88889L74.430359,131.33333L77.97467,131.33333L77.97467,142L81.518982,142L81.518982,131.33333L85.063293,131.33333L85.063293,127.77777L81.518982,127.77777L81.518982,120.66667L85.063293,120.66667L85.063293,124.22223L88.607605,124.22223L88.607605,131.33333L92.151917,131.33333L92.151917,134.88889L88.607605,134.88889L88.607605,138.44444L85.063293,138.44444L85.063293,142L88.607605,142L88.607605,138.44444L92.151917,138.44444L92.151917,134.88889L95.696228,134.88889L95.696228,138.44444L99.240479,138.44444L99.240479,142L102.78479,142L102.78479,138.44444L99.240479,138.44444L99.240479,134.88889L95.696228,134.88889L95.696228,131.33333L99.240479,131.33333L99.240479,124.22223L102.78479,124.22223L102.78479,120.66667L99.240479,120.66667L99.240479,117.11111L102.78479,117.11111L102.78479,113.55556L95.696228,113.55556L95.696228,110L92.151917,110L92.151917,113.55556L85.063293,113.55556L85.063293,117.11111L81.518982,117.11111L81.518982,110L77.97467,110L77.97467,117.11111L70.886047,117.11111L70.886047,120.66667ZM88.607605,120.66667L85.063293,120.66667L85.063293,117.11111L88.607605,117.11111L88.607605,120.66667ZM88.607605,120.66667L92.151917,120.66667L92.151917,117.11111L95.696228,117.11111L95.696228,120.66667L99.240479,120.66667L99.240479,124.22223L95.696228,124.22223L95.696228,131.33333L92.151917,131.33333L92.151917,124.22223L88.607605,124.22223L88.607605,120.66667ZM106.3291,110L106.3291,142L138.22784,142L138.22784,110L106.3291,110ZM205.56958,113.55556L205.56958,110L194.93671,110L194.93671,113.55556L180.75952,113.55556L180.75952,117.11111L191.3924,117.11111L191.3924,120.66667L180.75952,120.66667L180.75952,124.22223L191.3924,124.22223L191.3924,127.77777L177.21521,127.77777L177.21521,131.33333L191.3924,131.33333L191.3924,138.44444L184.30377,138.44444L184.30377,142L194.93671,142L194.93671,131.33333L209.11389,131.33333L209.11389,127.77777L194.93671,127.77777L194.93671,124.22223L205.56958,124.22223L205.56958,120.66667L194.93671,120.66667L194.93671,113.55556L205.56958,113.55556ZM244.55701,117.11111L244.55701,113.55556L230.37976,113.55556L230.37976,110L226.83545,110L226.83545,113.55556L212.6582,113.55556L212.6582,117.11111L219.74683,117.11111L219.74683,120.66667L216.20251,120.66667L216.20251,124.22223L212.6582,124.22223L212.6582,127.77777L216.20251,127.77777L216.20251,124.22223L219.74683,124.22223L219.74683,127.77777L223.29114,127.77777L223.29114,131.33333L226.83545,131.33333L226.83545,134.88889L219.74683,134.88889L219.74683,138.44444L212.6582,138.44444L212.6582,142L219.74683,142L219.74683,138.44444L226.83545,138.44444L226.83545,134.88889L230.37976,134.88889L230.37976,138.44444L237.46838,138.44444L237.46838,142L244.55701,142L244.55701,138.44444L237.46838,138.44444L237.46838,134.88889L230.37976,134.88889L230.37976,131.33333L233.92401,131.33333L233.92401,127.77777L237.46838,127.77777L237.46838,124.22223L241.0127,124.22223L241.0127,127.77777L244.55701,127.77777L244.55701,124.22223L241.0127,124.22223L241.0127,120.66667L237.46838,120.66667L237.46838,117.11111L244.55701,117.11111ZM237.46838,120.66667L237.46838,124.22223L233.92401,124.22223L233.92401,127.77777L230.37976,127.77777L230.37976,131.33333L226.83545,131.33333L226.83545,127.77777L223.29114,127.77777L223.29114,124.22223L219.74683,124.22223L219.74683,120.66667L223.29114,120.66667L223.29114,117.11111L233.92401,117.11111L233.92401,120.66667L237.46838,120.66667ZM255.18982,138.44444L255.18982,134.88889L262.27844,134.88889L262.27844,138.44444L258.73413,138.44444L258.73413,142L262.27844,142L262.27844,138.44444L265.82275,138.44444L265.82275,134.88889L276.45569,134.88889L276.45569,138.44444L269.36707,138.44444L269.36707,142L276.45569,142L276.45569,138.44444L280,138.44444L280,131.33333L258.73413,131.33333L258.73413,127.77777L272.91138,127.77777L272.91138,110L251.64551,110L251.64551,127.77777L255.18982,127.77777L255.18982,131.33333L248.10132,131.33333L248.10132,134.88889L251.64551,134.88889L251.64551,138.44444L248.10132,138.44444L248.10132,142L251.64551,142L251.64551,138.44444L255.18982,138.44444ZM134.68353,113.55556L134.68353,138.44444L109.87341,138.44444L109.87341,113.55556L134.68353,113.55556ZM170.12659,117.11111L170.12659,113.55556L145.31647,113.55556L145.31647,117.11111L170.12659,117.11111ZM269.36707,113.55556L269.36707,117.11111L255.18982,117.11111L255.18982,113.55556L269.36707,113.55556ZM116.96204,120.66667L127.59491,120.66667L127.59491,117.11111L116.96204,117.11111L116.96204,120.66667ZM38.987366,120.66667L35.443054,120.66667L35.443054,124.22223L38.987366,124.22223L38.987366,127.77777L42.531616,127.77777L42.531616,124.22223L38.987366,124.22223L38.987366,120.66667ZM255.18982,124.22223L255.18982,120.66667L269.36707,120.66667L269.36707,124.22223L255.18982,124.22223ZM131.13922,127.77777L131.13922,124.22223L113.41772,124.22223L113.41772,127.77777L116.96204,127.77777L116.96204,131.33333L113.41772,131.33333L113.41772,134.88889L116.96204,134.88889L116.96204,131.33333L120.50635,131.33333L120.50635,127.77777L124.05066,127.77777L124.05066,134.88889L131.13922,134.88889L131.13922,131.33333L127.59491,131.33333L127.59491,127.77777L131.13922,127.77777ZM46.075928,131.33333L42.531616,131.33333L42.531616,134.88889L38.987366,134.88889L38.987366,138.44444L35.443054,138.44444L35.443054,142L38.987366,142L38.987366,138.44444L42.531616,138.44444L42.531616,134.88889L46.075928,134.88889L46.075928,131.33333ZM141.77216,138.44444L173.6709,138.44444L173.6709,134.88889L141.77216,134.88889L141.77216,138.44444Z" fill-rule="evenodd" fill="#FFFFFF" fill-opacity="1"/></svg>